# AST/ASF file generated using VICON BodyLanguage
# -----------------------------------------------
:version 1.10
:name VICON
:units
  mass 1.0
  length 0.45
  angle deg
:documentation
   .ast/.asf automatically generated from VICON data using
   VICON BodyBuilder and BodyLanguage model FoxedUp or BRILLIANT.MOD
:root
   order TX TY TZ RX RY RZ
   axis XYZ
   position 0 0 0  
   orientation 0 0 0 
:bonedata
  begin
     id 1 
     name lhipjoint
     direction 0.682418 -0.694059 0.22932 
     length 2.25561 
     axis 0 0 0  XYZ
  end
  begin
     id 2 
     name lfemur
     direction 0.34202 -0.939693 0  
     length 6.96448  
     axis 0 0 20  XYZ
    dof rx ry rz
    limits (-160.0 20.0)
           (-70.0 70.0)
           (-60.0 70.0)
  end
  begin
     id 3 
     name ltibia
     direction 0.34202 -0.939693 0   
     length 6.88553   
     axis 0 0 20   XYZ
    dof rx
    limits (-10.0 170.0)
  end
  begin
     id 4 
     name lfoot
     direction 0.0723587 -0.198804 0.977364   
     length 1.88518   
     axis -90 7.62852e-016 20   XYZ
    dof rx rz
    limits (-45.0 90.0)
           (-70.0 20.0)
  end
  begin
     id 5 
     name ltoes
     direction 1.53558e-011 -4.21962e-011 1   
     length 0.952124   
     axis -90 7.62852e-016 20   XYZ
    dof rx
    limits (-90.0 20.0)
  end
  begin
     id 6 
     name rhipjoint
     direction -0.657603 -0.71533 0.236348   
     length 2.18854  
     axis 0 0 0  XYZ 
  end
  begin
     id 7 
     name rfemur
     direction -0.34202 -0.939693 0   
     length 6.86686   
     axis 0 0 -20   XYZ
    dof rx ry rz
    limits (-160.0 20.0)
           (-70.0 70.0)
           (-70.0 60.0)
  end
  begin
     id 8 
     name rtibia
     direction -0.34202 -0.939693 0   
     length 6.59503   
     axis 0 0 -20   XYZ
    dof rx
    limits (-10.0 170.0)
 end
 begin
     id 9 
     name rfoot
     direction -0.101977 -0.280179 0.954516   
     length 1.93723  
     axis -90 -7.62852e-016 -20   XYZ
    dof rx rz
    limits (-45.0 90.0)
           (-20.0 70.0)
  end
  begin
     id 10 
     name rtoes
     direction -1.53564e-011 -4.21897e-011 1   
     length 0.970315   
     axis -90 -7.62852e-016 -20   XYZ
    dof rx
    limits (-90.0 20.0)
  end
  begin
     id 11 
     name lowerback
     direction -0.0339559 0.999421 -0.00235966   
     length 1.88543   
     axis 0 0 0   XYZ
    dof rx ry rz
    limits (-20.0 45.0)
           (-30.0 30.0)
           (-30.0 30.0)
  end
  begin
     id 12 
     name upperback
     direction 0.00401003 0.999739 0.0224689   
     length 1.8856   
     axis 0 0 0   XYZ
    dof rx ry rz
    limits (-20.0 45.0)
           (-30.0 30.0)
           (-30.0 30.0)
  end
  begin
     id 13 
     name thorax
     direction 0.0198619 0.999546 0.0226536   
     length 1.88352   
     axis 0 0 0   XYZ
    dof rx ry rz
    limits (-20.0 45.0)
           (-30.0 30.0)
           (-30.0 30.0)
  end
  begin
     id 14 
     name lowerneck
     direction -0.0461848 0.998632 0.0245198   
     length 1.34895   
     axis 0 0 0   XYZ
    dof rx ry rz
    limits (-20.0 45.0)
           (-30.0 30.0)
           (-30.0 30.0)
  end
  begin
     id 15 
     name upperneck
     direction -0.0180627 0.994724 -0.100984   
     length 1.35214   
     axis 0 0 0   XYZ
    dof rx ry rz
    limits (-20.0 45.0)
           (-30.0 30.0)
           (-30.0 30.0)
  end
  begin
     id 16
     name head
     direction -0.00374772 0.999293 -0.037403  
     length 1.3568  
     axis 0 0 0   XYZ
    dof rx ry rz
    limits (-20.0 45.0)
           (-30.0 30.0)
           (-30.0 30.0)
  end
  begin
     id 17 
     name lclavicle
     direction 0.971773 0.191119 0.138311  
     length 2.84954  
     axis 0 0 0   XYZ
    dof ry rz
    limits (-20.0 10.0)
           (0.0 20.0)
  end
  begin
     id 18 
     name lhumerus
     direction 1 -4.4897e-011 -2.43761e-027   
     length 4.40919   
     axis 180 -30 -90   XYZ
    dof rx ry rz
    limits (-60.0 90.0)
           (-90.0 90.0)
           (-90.0 90.0)
  end
  begin
     id 19
     name lradius
     direction 1 -4.4896e-011 -9.1621e-027   
     length 3.03857   
     axis 180 -30 -90   XYZ
    dof rx
    limits (-10.0 170.0)
  end
  begin
     id 20
     name lwrist
     direction 1 -4.4896e-011 -1.41363e-026   
     length 1.51928   
     axis 1.07133e-014 90 90   XYZ
    dof ry
    limits (-180.0 0.0)
 end
  begin
     id 21 
     name lhand
     direction 1 -4.48978e-011 -2.82725e-026   
     length 0.523208   
     axis 1.80403e-014 90 90   XYZ
    dof rx rz
    limits (-90.0 90.0)
           (-45.0 45.0)
  end
  begin
     id 22 
     name lfingers
     direction 1 -4.48977e-011 -5.6545e-026   
     length 0.421824   
     axis 3.60806e-014 90 90   XYZ
    dof rx
    limits (0.0 90.0)
  end
  begin
     id 23
     name lthumb
     direction 0.707107 -6.34962e-011 0.707107   
     length 0.605657   
     axis -90 45 2.85299e-015   XYZ
    dof rx rz
    limits (-45.0 45.0)
           (-45.0 45.0)
  end
  begin
     id 24 
     name rclavicle
     direction -0.957247 0.24311 0.156766   
     length 3.12406  
     axis 0 0 0   XYZ 
    dof ry rz
    limits (-10.0 20.0)
           (-20.0 0.0)
  end
  begin
     id 25 
     name rhumerus
     direction -1 -4.48964e-011 -1.70632e-027  
     length 4.61969   
     axis 180 30 90   XYZ
    dof rx ry rz
    limits (-90.0 60.0)
           (-90.0 90.0)
           (-90.0 90.0)
  end
  begin
     id 26 
     name rradius
     direction -1 -4.48966e-011 -6.60395e-027   
     length 3.09382   
     axis 180 30 90   XYZ
    dof rx
    limits (-10.0 170.0)
  end
  begin
     id 27 
     name rwrist
     direction -1 -4.48963e-011 -1.41363e-026   
     length 1.54691   
     axis 1.07133e-014 -90 -90   XYZ
    dof ry
    limits (-180.0 0.0)
  end
  begin
     id 28
     name rhand
     direction -1 -4.49013e-011 -2.82725e-026   
     length 0.500896   
     axis 1.80403e-014 -90 -90   XYZ
    dof rx rz
    limits (-90.0 90.0)
           (-45.0 45.0)
  end
  begin
     id 29
     name rfingers
     direction -1 -4.48902e-011 -5.6545e-026   
     length 0.403835   
     axis 3.60806e-014 -90 -90   XYZ
    dof rx
    limits (0.0 90.0)
  end
  begin
     id 30
     name rthumb
     direction -0.707107 -6.34953e-011 0.707107   
     length 0.579829   
     axis -90 -45 -2.85299e-015   XYZ
    dof rx rz
    limits (-45.0 45.0)
           (-45.0 45.0)
  end
:hierarchy
  begin
    root lhipjoint rhipjoint lowerback
    lhipjoint lfemur
    lfemur ltibia
    ltibia lfoot
    lfoot ltoes
    rhipjoint rfemur
    rfemur rtibia
    rtibia rfoot
    rfoot rtoes
    lowerback upperback
    upperback thorax
    thorax lowerneck lclavicle rclavicle
    lowerneck upperneck
    upperneck head
    lclavicle lhumerus
    lhumerus lradius
    lradius lwrist
    lwrist lhand lthumb
    lhand lfingers
    rclavicle rhumerus
    rhumerus rradius
    rradius rwrist
    rwrist rhand rthumb
    rhand rfingers
  end

#!OML:ASF E:\madness\Project 1\Capture day 1\Session 1\Female1.ASF
:FULLY-SPECIFIED
:DEGREES
85
root 12.5122 15.9653 -0.763176 -19.1732 -86.0062 32.6654
lowerback 6.00387 -0.0565073 -4.82853
upperback -0.00220158 -0.482773 -1.32521
thorax -3.34562 -0.181516 1.3831
lowerneck -4.61508 7.85248 3.01738
upperneck 27.4607 11.1758 -5.67318
head 9.96354 4.57177 -1.43145
rclavicle 7.35503e-015 2.62396e-014
rhumerus -51.2722 -24.5414 -4.07352
rradius 117.679
rwrist -11.5194
rhand 3.79821 -44.7541
rfingers 7.12502
rthumb 29.223 -72.4792
lclavicle 7.35503e-015 2.62396e-014
lhumerus -35.8792 -2.29395 36.5652
lradius 109.221
lwrist -0.280098
lhand -28.2021 -10.2389
lfingers 7.12502
lthumb -1.58111 19.735
rfemur -30.4102 11.9878 14.5522
rtibia 34.2898
rfoot -18.0891 -7.32633
rtoes 11.3819
lfemur -30.0523 -13.8514 -17.5028
ltibia 34.296
lfoot -14.0394 8.6449
ltoes -7.62548
86
root 12.5734 15.9579 -0.769212 -22.6847 -86.2658 36.222
lowerback 6.29692 -0.0108637 -4.95813
upperback 0.0144206 -0.455319 -1.41143
thorax -3.49484 -0.164584 1.3655
lowerneck -4.42358 7.96241 3.09452
upperneck 27.1717 11.3314 -5.77197
head 9.84146 4.65768 -1.46964
rclavicle 2.78299e-015 -8.34896e-015
rhumerus -51.2619 -24.7953 -3.53999
rradius 117.68
rwrist -11.9136
rhand 4.40739 -44.5261
rfingers 7.12502
rthumb 29.8046 -72.1486
lclavicle 2.78299e-015 -8.34896e-015
lhumerus -35.7977 -2.31314 36.2245
lradius 109.298
lwrist -0.0643902
lhand -28.6421 -10.201
lfingers 7.12502
lthumb -2.00602 19.7693
rfemur -30.989 11.7683 14.4876
rtibia 34.8928
rfoot -17.8894 -6.49183
rtoes 10.9522
lfemur -30.3905 -13.6442 -17.5002
ltibia 34.3726
lfoot -14.0235 8.37813
ltoes -6.19079
87
root 12.6279 15.9545 -0.778766 -25.1833 -86.5348 38.6771
lowerback 6.47971 0.0697759 -5.01293
upperback 0.112127 -0.364328 -1.46061
thorax -3.50173 -0.121228 1.33763
lowerneck -4.11338 8.03324 3.16623
upperneck 26.6629 11.4309 -5.88717
head 9.61585 4.72952 -1.52417
rclavicle -1.02374e-014 -7.15625e-015
rhumerus -51.3924 -25.0619 -2.90021
rradius 117.721
rwrist -12.2155
rhand 4.8158 -44.2607
rfingers 7.12502
rthumb 30.1943 -71.8126
lclavicle -1.02374e-014 -7.15625e-015
lhumerus -35.6258 -2.46721 35.9042
lradius 109.373
lwrist 0.10401
lhand -29.1509 -9.71362
lfingers 7.12502
lthumb -2.49742 20.2515
rfemur -31.4048 11.5046 14.6215
rtibia 35.6351
rfoot -17.8032 -5.75775
rtoes 10.0815
lfemur -30.5949 -13.4299 -17.4074
ltibia 34.4174
lfoot -14.14 8.13176
ltoes -5.74371
88
root 12.6788 15.953 -0.790473 -25.6115 -86.6782 39.0341
lowerback 6.67997 0.099009 -5.0313
upperback 0.148823 -0.339327 -1.45529
thorax -3.57755 -0.107735 1.35171
lowerneck -3.70368 8.0961 3.20249
upperneck 26.2782 11.5294 -6.04062
head 9.41868 4.78819 -1.59096
rclavicle -1.49089e-015 -3.18055e-014
rhumerus -51.4319 -25.1232 -2.26262
rradius 117.797
rwrist -12.4457
rhand 4.86928 -44.4986
rfingers 7.12502
rthumb 30.2453 -72.0412
lclavicle -1.49089e-015 -3.18055e-014
lhumerus -35.4406 -2.75333 35.7006
lradius 109.261
lwrist 0.306426
lhand -29.8811 -9.18722
lfingers 7.12502
lthumb -3.20263 20.7685
rfemur -31.6572 11.1433 14.8898
rtibia 36.4882
rfoot -17.854 -5.41828
rtoes 10.1683
lfemur -30.7078 -13.2015 -17.2948
ltibia 34.3802
lfoot -14.1743 8.02635
ltoes -6.74212
89
root 12.7312 15.9437 -0.803251 -25.5786 -86.7521 38.9601
lowerback 6.96018 0.0968771 -5.07357
upperback 0.0858937 -0.366254 -1.43978
thorax -3.79862 -0.114388 1.39491
lowerneck -3.4686 8.18116 2.94086
upperneck 26.1618 11.6369 -5.91731
head 9.31472 4.83396 -1.50706
rclavicle -5.86415e-015 -7.95139e-016
rhumerus -51.2455 -25.0398 -1.76351
rradius 117.796
rwrist -12.6546
rhand 4.56661 -44.7937
rfingers 7.12502
rthumb 29.9565 -72.3888
lclavicle -5.86415e-015 -7.95139e-016
lhumerus -35.3049 -3.16073 35.4893
lradius 109.123
lwrist 0.770664
lhand -30.2718 -8.90348
lfingers 7.12502
lthumb -3.57998 21.0462
rfemur -31.8875 10.7043 15.1666
rtibia 37.4134
rfoot -17.9139 -5.4631
rtoes 11.5278
lfemur -30.8368 -12.9054 -17.2316
ltibia 34.2921
lfoot -14.1939 8.08879
ltoes -9.1755
90
root 12.7802 15.9332 -0.821823 -25.3025 -86.8835 38.6261
lowerback 7.13431 0.066296 -5.19817
upperback 0.0776569 -0.426051 -1.3689
thorax -3.9002 -0.138494 1.54487
lowerneck -3.48933 8.32258 2.77075
upperneck 26.328 11.8393 -5.85507
head 9.37434 4.90743 -1.43692
rclavicle 2.68359e-015 1.11319e-014
rhumerus -50.7968 -25.0899 -1.49358
rradius 117.679
rwrist -12.804
rhand 4.21003 -44.6909
rfingers 7.12502
rthumb 29.6162 -72.347
lclavicle 2.68359e-015 1.11319e-014
lhumerus -35.362 -3.50402 35.2016
lradius 109.111
lwrist 1.32395
lhand -30.2447 -8.7716
lfingers 7.12502
lthumb -3.55376 21.1785
rfemur -32.0613 10.4031 15.4693
rtibia 38.3977
rfoot -18.1455 -5.84813
rtoes 13.9391
lfemur -30.9476 -12.6331 -17.0763
ltibia 34.2083
lfoot -14.1377 8.16572
ltoes -11.2093
91
root 12.8233 15.9288 -0.84236 -24.8579 -87.087 38.133
lowerback 7.04072 0.0287086 -5.31876
upperback 0.208281 -0.469522 -1.2595
thorax -3.70694 -0.163471 1.72968
lowerneck -3.51121 8.43673 2.91923
upperneck 26.4221 12.0534 -6.16543
head 9.45542 4.98245 -1.54303
rclavicle 5.36719e-015 -5.96354e-015
rhumerus -50.2025 -25.3611 -1.41644
rradius 117.543
rwrist -12.9482
rhand 3.68847 -44.8617
rfingers 7.12502
rthumb 29.1182 -72.6051
lclavicle 5.36719e-015 -5.96354e-015
lhumerus -35.3139 -3.54699 34.9952
lradius 108.867
lwrist 1.57804
lhand -30.2292 -8.97524
lfingers 7.12502
lthumb -3.53882 20.9751
rfemur -32.1597 10.2196 15.7761
rtibia 39.4399
rfoot -18.6832 -6.37929
rtoes 17.7049
lfemur -31.0557 -12.5567 -16.7858
ltibia 34.1432
lfoot -13.8943 8.06918
ltoes -10.9285
